<svg width="14" height="18" viewBox="0 0 14 18" fill="none" xmlns="http://www.w3.org/2000/svg">
<path d="M7 0C3.40545 0 0.481079 2.92437 0.481079 6.51888C0.481079 10.9798 6.31487 17.5287 6.56325 17.8053C6.79655 18.0651 7.20387 18.0647 7.43674 17.8053C7.68512 17.5287 13.5189 10.9798 13.5189 6.51888C13.5188 2.92437 10.5945 0 7 0ZM7 16.5139C5.03663 14.1817 1.65502 9.5805 1.65502 6.51895C1.65502 3.57166 4.05274 1.17394 7 1.17394C9.94725 1.17394 12.345 3.57166 12.345 6.51892C12.3449 9.58061 8.96386 14.181 7 16.5139Z" fill="black"/>
<path d="M7.00001 3.23908C5.1915 3.23908 3.72021 4.71041 3.72021 6.51891C3.72021 8.32742 5.19154 9.79875 7.00001 9.79875C8.80848 9.79875 10.2798 8.32742 10.2798 6.51891C10.2798 4.71041 8.80848 3.23908 7.00001 3.23908ZM7.00001 8.62481C5.8388 8.62481 4.89415 7.68013 4.89415 6.51891C4.89415 5.3577 5.83884 4.41302 7.00001 4.41302C8.16119 4.41302 9.10587 5.3577 9.10587 6.51891C9.10587 7.68013 8.16119 8.62481 7.00001 8.62481Z" fill="black"/>
</svg>
