<svg width="18" height="18" viewBox="0 0 18 18" fill="none" xmlns="http://www.w3.org/2000/svg">
<path d="M16.418 9.52734H11.1094C10.237 9.52734 9.52734 10.237 9.52734 11.1094C9.52734 11.9817 10.237 12.6914 11.1094 12.6914H16.418C17.2903 12.6914 18 11.9817 18 11.1094C18 10.237 17.2903 9.52734 16.418 9.52734ZM16.418 11.6367H11.1094C10.8186 11.6367 10.582 11.4002 10.582 11.1094C10.582 10.8186 10.8186 10.582 11.1094 10.582H16.418C16.7087 10.582 16.9453 10.8186 16.9453 11.1094C16.9453 11.4002 16.7087 11.6367 16.418 11.6367Z" fill="black"/>
<path d="M6.89062 5.30859H1.58203C0.709699 5.30859 0 6.01829 0 6.89062C0 7.76296 0.709699 8.47266 1.58203 8.47266H6.89062C7.76296 8.47266 8.47266 7.76296 8.47266 6.89062C8.47266 6.01829 7.76296 5.30859 6.89062 5.30859ZM6.89062 7.41797H1.58203C1.29125 7.41797 1.05469 7.1814 1.05469 6.89062C1.05469 6.59985 1.29125 6.36328 1.58203 6.36328H6.89062C7.1814 6.36328 7.41797 6.59985 7.41797 6.89062C7.41797 7.1814 7.1814 7.41797 6.89062 7.41797Z" fill="black"/>
<path d="M11.1094 8.47266C11.9817 8.47266 12.6914 7.76296 12.6914 6.89062V1.58203C12.6914 0.709699 11.9817 0 11.1094 0C10.237 0 9.52734 0.709699 9.52734 1.58203V6.89062C9.52734 7.76296 10.237 8.47266 11.1094 8.47266ZM10.582 1.58203C10.582 1.29125 10.8186 1.05469 11.1094 1.05469C11.4002 1.05469 11.6367 1.29125 11.6367 1.58203V6.89062C11.6367 7.1814 11.4002 7.41797 11.1094 7.41797C10.8186 7.41797 10.582 7.1814 10.582 6.89062V1.58203Z" fill="black"/>
<path d="M6.89062 9.52734C6.01829 9.52734 5.30859 10.237 5.30859 11.1094V16.418C5.30859 17.2903 6.01829 18 6.89062 18C7.76296 18 8.47266 17.2903 8.47266 16.418V11.1094C8.47266 10.237 7.76296 9.52734 6.89062 9.52734ZM7.41797 16.418C7.41797 16.7087 7.1814 16.9453 6.89062 16.9453C6.59985 16.9453 6.36328 16.7087 6.36328 16.418V11.1094C6.36328 10.8186 6.59985 10.582 6.89062 10.582C7.1814 10.582 7.41797 10.8186 7.41797 11.1094V16.418Z" fill="black"/>
<path d="M14.3086 8.47266H15.8906C17.0537 8.47266 18 7.52639 18 6.36328C18 5.20017 17.0537 4.25391 15.8906 4.25391C14.7275 4.25391 13.7812 5.20017 13.7812 6.36328V7.94531C13.7812 8.23655 14.0174 8.47266 14.3086 8.47266ZM14.8359 6.36328C14.8359 5.78173 15.3091 5.30859 15.8906 5.30859C16.4722 5.30859 16.9453 5.78173 16.9453 6.36328C16.9453 6.94484 16.4722 7.41797 15.8906 7.41797H14.8359V6.36328Z" fill="black"/>
<path d="M3.69141 9.52734H2.10938C0.946266 9.52734 0 10.4736 0 11.6367C0 12.7998 0.946266 13.7461 2.10938 13.7461C3.27248 13.7461 4.21875 12.7998 4.21875 11.6367V10.0547C4.21875 9.76345 3.98264 9.52734 3.69141 9.52734ZM3.16406 11.6367C3.16406 12.2183 2.69093 12.6914 2.10938 12.6914C1.52782 12.6914 1.05469 12.2183 1.05469 11.6367C1.05469 11.0552 1.52782 10.582 2.10938 10.582H3.16406V11.6367Z" fill="black"/>
<path d="M6.36328 0C5.20017 0 4.25391 0.946266 4.25391 2.10938C4.25391 3.27248 5.20017 4.21875 6.36328 4.21875H7.94531C8.23655 4.21875 8.47266 3.98264 8.47266 3.69141V2.10938C8.47266 0.946266 7.52639 0 6.36328 0ZM7.41797 3.16406H6.36328C5.78173 3.16406 5.30859 2.69093 5.30859 2.10938C5.30859 1.52782 5.78173 1.05469 6.36328 1.05469C6.94484 1.05469 7.41797 1.52782 7.41797 2.10938V3.16406Z" fill="black"/>
<path d="M11.6367 13.7812H10.0547C9.76345 13.7812 9.52734 14.0174 9.52734 14.3086V15.8906C9.52734 17.0537 10.4736 18 11.6367 18C12.7998 18 13.7461 17.0537 13.7461 15.8906C13.7461 14.7275 12.7998 13.7812 11.6367 13.7812ZM11.6367 16.9453C11.0552 16.9453 10.582 16.4722 10.582 15.8906V14.8359H11.6367C12.2183 14.8359 12.6914 15.3091 12.6914 15.8906C12.6914 16.4722 12.2183 16.9453 11.6367 16.9453Z" fill="black"/>
</svg>
