<svg width="16" height="16" viewBox="0 0 16 16" fill="none" xmlns="http://www.w3.org/2000/svg">
<path d="M13.1875 1V0H12.25V1H8.46875V0H7.53125V1H3.75V0H2.8125V1H0V16H16V1H13.1875ZM2.8125 1.9375V2.78125H3.75V1.9375H7.53125V2.78125H8.46875V1.9375H12.25V2.78125H13.1875V1.9375H15.0625V3.34375H0.9375V1.9375H2.8125ZM0.9375 4.28125H15.0625V11.8683L11.8683 15.0625H0.9375V4.28125ZM13.1942 15.0625L15.0625 13.1942V15.0625H13.1942Z" fill="black"/>
<path d="M12.1875 9.375C12.1875 8.61681 11.5707 8 10.8125 8H10.3125V6.78125H9.375V8H8.4375V6.78125H7.5V8H6.5625V6.78125H5.625V8H5.125C4.36681 8 3.75 8.61681 3.75 9.375V12.6875H12.1875V9.375ZM5.125 8.9375H10.8125C11.0538 8.9375 11.25 9.13375 11.25 9.375V9.90756H4.6875V9.375C4.6875 9.13375 4.88375 8.9375 5.125 8.9375ZM4.6875 11.75V10.8451H11.25V11.75H4.6875Z" fill="black"/>
</svg>
